Coordinates
version=1
nRows=19
nColumns=33
inDegrees=yes

Units are S.I. units (second, meters, Newtons, ...)
Angles are in degrees.

endheader
time	ground_thorax_rot_x	ground_thorax_rot_y	ground_thorax_rot_z	ground_thorax_tx	ground_thorax_ty	ground_thorax_tz	clav_prot_r	clav_elev_r	scapula_abduction_r	scapula_elevation_r	scapula_upward_rot_r	scapula_winging_r	shoulder_elv_r	plane_of_elev_r	axial_rot_r	elbow_flexion_r	pro_sup_r	wrist_flex_r	wrist_dev_r	clav_prot_l	clav_elev_l	scapula_abduction_l	scapula_elevation_l	scapula_upward_rot_l	scapula_winging_l	shoulder_elv_l	plane_of_elev_l	axial_rot_l	elbow_flexion_l	pro_sup_l	wrist_flex_l	wrist_dev_l
      9.91000000	    -37.99925252	     -6.74355278	     11.47848959	    -80.07175111	    839.28529228	    -39.11961813	     21.86474959	    -45.00000000	     34.90688009	    -45.00000000	    -40.54181651	  -2617.69747357	   -465.40162888	    158.18418603	     21.43724189	    358.82386994	    154.32980011	     13.28559893	     14.67484602	      2.20289028	     28.99184609	    -28.46112629	    -45.00000000	    -45.00000000	  -4243.43500310	  -1342.66212500	     19.16211038	   -179.99999979	     -1.88610237	    171.11271783	      9.86265562	    -16.76145334
      9.92000000	    -37.97038306	     -6.71066959	     11.37568363	    -80.43295894	    840.64543113	    -39.06626800	     21.82487892	    -45.00000000	     34.86786333	    -45.00000000	    -40.25032375	  -2617.78358953	   -465.30435569	    158.13263883	     21.25197201	    358.82364307	    153.99830100	     13.33533224	     14.60718291	      2.22879537	     28.99688915	    -28.48791440	    -45.00000000	    -45.00000000	  -4243.41386949	  -1342.61134989	     19.24382815	   -179.99999979	     -2.02353682	    170.69090801	      9.72352073	    -16.80241487
      9.93000000	    -38.02301773	     -6.65150120	     11.12059138	    -80.73822543	    841.92773192	    -39.01594576	     21.74213587	    -45.00000000	     34.95490308	    -45.00000000	    -40.11471016	  -2617.76908760	   -465.30875374	    158.15322340	     21.06740231	    358.62206402	    153.70075333	     13.41835014	     14.66466980	      2.22120442	     29.04691643	    -28.54867532	    -45.00000000	    -45.00000000	  -4243.42026172	  -1342.50268247	     19.23262346	   -179.99999979	     -2.10877748	    170.30773512	      9.57739824	    -16.84487733
      9.94000000	    -38.02122799	     -6.52308682	     10.95430019	    -80.99166409	    843.13486403	    -38.97032657	     21.68548390	    -45.00000000	     34.99604335	    -45.00000000	    -39.85542078	  -2617.88816386	   -465.31287562	    158.05004419	     20.89685910	    358.70850609	    153.42507558	     13.45646815	     14.62856415	      2.26608799	     29.01344562	    -28.57854752	    -45.00000000	    -45.00000000	  -4243.32161481	  -1342.41611851	     19.42531062	   -179.99999979	     -2.37334784	    169.97436346	      9.43797153	    -16.93917989
      9.95000000	    -38.03584429	     -6.57846161	     10.88663643	    -81.19591113	    844.26695170	    -38.93040248	     21.58954746	    -45.00000000	     35.02463519	    -45.00000000	    -39.70501988	  -2617.84434485	   -465.20216843	    158.21654555	     20.72134603	    358.39044727	    153.19686014	     13.59564183	     14.72188216	      2.24154141	     29.10802036	    -28.68153923	    -45.00000000	    -45.00000000	  -4243.49257527	  -1342.37978400	     19.19396989	   -179.99999979	     -2.32832327	    169.68962862	      9.29280172	    -16.95911269
      9.96000000	    -38.13107040	     -6.42625357	     10.56092160	    -81.35352978	    845.32296450	    -38.89597991	     21.60112375	    -45.00000000	     34.99221303	    -45.00000000	    -39.53776670	  -2617.93994445	   -465.39911537	    157.87878470	     20.60791963	    358.57197761	    152.98197785	     13.64348955	     14.64348994	      2.29849091	     28.98147292	    -28.57319338	    -45.00000000	    -45.00000000	  -4243.21553677	  -1342.13841397	     19.67250972	   -179.99999979	     -2.54388475	    169.44701583	      9.18139204	    -17.03104764
      9.97000000	    -38.03213674	     -6.58762111	     10.64823787	    -81.46683620	    846.30617102	    -38.86459207	     21.37852440	    -45.00000000	     35.22752718	    -45.00000000	    -39.31663177	  -2617.80656095	   -465.12885655	    158.35525406	     20.42109425	    358.26546775	    152.85556157	     13.76599316	     14.85957649	      2.22793336	     29.20259156	    -28.89426377	    -45.00000000	    -45.00000000	  -4243.65290378	  -1342.39703288	     18.94409584	   -179.99999979	     -2.57438584	    169.24221740	      9.00602291	    -17.12681586
      9.98000000	    -38.08915515	     -6.58530052	     10.58118006	    -81.53819373	    847.21748130	    -38.83295867	     21.41437020	    -45.00000000	     35.03842730	    -45.00000000	    -39.26280685	  -2617.96178084	   -465.24154140	    158.09599769	     20.29584574	    358.30138904	    152.71313386	     13.86155006	     14.73335368	      2.21756510	     29.04389878	    -28.75876206	    -45.00000000	    -45.00000000	  -4243.43784352	  -1342.21702580	     19.37771456	   -179.99999979	     -2.63838515	    169.07411430	      8.94148668	    -17.13078582
      9.99000000	    -38.14547650	     -6.47644922	     10.34580096	    -81.57017104	    848.05777828	    -38.79700002	     21.40929045	    -45.00000000	     34.98548497	    -45.00000000	    -39.03013525	  -2617.93960308	   -465.25026770	    158.04521338	     20.15741629	    358.25558672	    152.64115252	     14.03696500	     14.78800509	      2.30859909	     29.08652126	    -28.70711640	    -45.00000000	    -45.00000000	  -4243.46910780	  -1341.99068777	     19.49119270	   -179.99999979	     -2.77850925	    168.97353589	      8.78960338	    -17.25455083
     10.00000000	    -38.21232508	     -6.36152933	     10.04892113	    -81.56730021	    848.83089026	    -38.75387205	     21.27312539	    -45.00000000	     35.21542165	    -45.00000000	    -38.94473571	  -2617.94064815	   -465.36172956	    158.07471301	     20.08375602	    358.12654338	    152.65036381	     14.15352687	     14.86019546	      2.29610384	     29.04105442	    -28.82051816	    -45.00000000	    -45.00000000	  -4243.46018304	  -1342.00301296	     19.51800760	   -179.99999979	     -2.99958510	    168.93141825	      8.66566617	    -17.36494278
     10.01000000	    -38.19319831	     -6.44717665	     10.05993344	    -81.53562163	    849.53751558	    -38.70237826	     21.25347339	    -45.00000000	     35.02531404	    -45.00000000	    -38.68091876	  -2617.93429848	   -465.26924660	    158.01199784	     19.99628888	    358.18170744	    152.67120495	     14.29295316	     14.85199721	      2.37715336	     29.09187405	    -28.70427194	    -45.00000000	    -45.00000000	  -4243.56125506	  -1341.85259086	     19.54796349	   -179.99999979	     -3.12158909	    168.94299746	      8.52728612	    -17.47576454
     10.02000000	    -38.23424598	     -6.39727747	      9.85824132	    -81.48291017	    850.17659644	    -38.64431561	     21.16717887	    -45.00000000	     35.17454962	    -45.00000000	    -38.59474057	  -2617.93291278	   -465.32768734	    158.04824273	     19.86897204	    357.99669827	    152.75185357	     14.44922259	     14.83730373	      2.28880881	     29.00243697	    -28.87060291	    -45.00000000	    -45.00000000	  -4243.53366239	  -1341.91110103	     19.57650554	   -179.99999979	     -3.20742461	    169.04373867	      8.38538426	    -17.53294114
     10.03000000	    -38.25336767	     -6.40275428	      9.76896256	    -81.41779167	    850.74969966	    -38.58280402	     21.12973700	    -45.00000000	     35.08023883	    -45.00000000	    -38.45195158	  -2617.93670365	   -465.30757463	    158.00021123	     19.82529399	    358.04951116	    152.86749044	     14.57021488	     14.93988482	      2.45054878	     29.11606999	    -28.63735102	    -45.00000000	    -45.00000000	  -4243.68086567	  -1341.62527091	     19.63202202	   -179.99999979	     -3.47995954	    169.19081663	      8.22517484	    -17.71180093
     10.04000000	    -38.26881948	     -6.44391161	      9.70229072	    -81.34960371	    851.25244851	    -38.52288214	     21.04936854	    -45.00000000	     35.17976248	    -45.00000000	    -38.31478131	  -2617.92260450	   -465.34462099	    158.08290075	     19.68663466	    357.92156960	    153.00246943	     14.71400471	     14.76553103	      2.22894511	     28.91479859	    -28.98369077	    -45.00000000	    -45.00000000	  -4243.59814468	  -1341.95289583	     19.59558252	   -179.99999979	     -3.41766306	    169.46138834	      8.06835945	    -17.68009596
     10.05000000	    -38.32586704	     -6.51671189	      9.62010544	    -81.28685050	    851.68314156	    -38.47021763	     21.02323993	    -45.00000000	     35.02964848	    -45.00000000	    -38.21729650	  -2617.91236555	   -465.34066172	    157.99628792	     19.66729364	    357.90170364	    153.19867825	     14.85479290	     14.94169805	      2.43601804	     29.11268508	    -28.60652321	    -45.00000000	    -45.00000000	  -4243.82542676	  -1341.51117237	     19.62853940	   -179.99999979	     -3.54464948	    169.79708191	      7.88697192	    -17.82648739
     10.06000000	    -38.30222810	     -6.48138417	      9.59586672	    -81.23590987	    852.04847697	    -38.42870055	     20.98116429	    -45.00000000	     35.11247900	    -45.00000000	    -38.12864968	  -2617.93074395	   -465.38702126	    158.09163231	     19.54805925	    357.85747991	    153.38806110	     14.98313034	     14.74722599	      2.24699885	     28.88678838	    -28.91093642	    -45.00000000	    -45.00000000	  -4243.72398501	  -1341.78304342	     19.69781487	   -179.99999979	     -3.65376746	    170.22838636	      7.72284850	    -17.83506213
     10.07000000	    -38.36117905	     -6.57282935	      9.50375051	    -81.20278033	    852.33605822	    -38.40502899	     20.93064386	    -45.00000000	     35.05386201	    -45.00000000	    -38.12473140	  -2617.86973740	   -465.37073757	    158.03103994	     19.56660609	    357.85105308	    153.62195996	     15.11939271	     14.95457807	      2.45171284	     29.12664709	    -28.54262108	    -45.00000000	    -45.00000000	  -4243.96927728	  -1341.38673120	     19.65323709	   -179.99999979	     -3.78157275	    170.68943276	      7.52318137	    -17.97599511
     10.08000000	    -38.37219735	     -6.58778290	      9.51884863	    -81.19220516	    852.56236714	    -38.39247059	     20.91374759	    -45.00000000	     35.09701601	    -45.00000000	    -38.03479956	  -2617.89075646	   -465.45040949	    158.07880095	     19.42131921	    357.77896073	    153.82179027	     15.25608066	     14.66167693	      2.16548444	     28.78793729	    -28.92794158	    -45.00000000	    -45.00000000	  -4243.74687725	  -1341.84790680	     19.70487341	   -179.99999979	     -3.79747455	    171.24469798	      7.39374680	    -17.90891960
     10.09000000	    -38.33966197	     -6.66964489	      9.62789226	    -81.19848256	    852.73736044	    -38.39745770	     20.88736223	    -45.00000000	     34.97240233	    -45.00000000	    -38.04406012	  -2617.90868798	   -465.40503939	    158.10722749	     19.36910649	    357.76868488	    154.13171991	     15.39739386	     14.80878690	      2.29082498	     28.99646382	    -28.64339540	    -45.00000000	    -45.00000000	  -4244.00466129	  -1341.64170668	     19.66636621	   -179.99999979	     -3.94205079	    171.95396587	      7.19278958	    -18.04701601
